<?xml version="1.0" standalone="no"?>
<!DOCTYPE svg PUBLIC "-//W3C//DTD SVG 20010904//EN"
 "http://www.w3.org/TR/2001/REC-SVG-20010904/DTD/svg10.dtd">
<svg version="1.0" xmlns="http://www.w3.org/2000/svg"
 width="972.000000pt" height="972.000000pt" viewBox="0 0 972.000000 972.000000"
 preserveAspectRatio="xMidYMid meet">
<metadata>
Created by potrace 1.11, written by Peter Selinger 2001-2013
</metadata>
<g transform="translate(0.000000,972.000000) scale(0.100000,-0.100000)"
fill="#000000" stroke="none">
<path d="M4839 9605 c0 0 -2 -11 -4 -25 -4 -24 -70 -306 -101 -426 -8 -33 -17
-69 -19 -80 -2 -10 -4 -19 -5 -19 -1 0 -4 -11 -6 -25 -2 -14 -15 -67 -27 -118
-13 -51 -21 -95 -18 -97 14 -8 3161 -2 3167 6 3 5 7 18 10 29 2 11 6 29 9 40
11 45 16 66 21 87 2 13 16 69 29 125 14 57 28 113 31 126 2 13 16 69 30 125
14 56 28 118 31 137 3 19 9 43 14 52 5 9 9 27 9 40 l0 24 -1585 0 c-872 0
-1585 0 -1586 -1z"/>
<path d="M5938 8055 c-2 -1 -48 -5 -103 -9 -114 -7 -161 -12 -295 -32 -138
-20 -162 -24 -190 -30 -14 -3 -36 -7 -50 -10 -14 -3 -63 -14 -109 -26 -46 -11
-89 -21 -95 -23 -6 -1 -18 -5 -26 -8 -19 -7 -160 -48 -180 -52 -27 -6 -233
-86 -330 -128 -107 -47 -322 -155 -381 -193 -21 -13 -39 -21 -39 -17 0 5 -4 3
-8 -3 -4 -6 -27 -24 -52 -39 -58 -36 -152 -97 -165 -108 -5 -4 -39 -29 -75
-55 -36 -25 -69 -52 -73 -59 -4 -7 -14 -13 -22 -13 -7 0 -22 -10 -32 -22 -10
-13 -41 -41 -68 -63 -115 -92 -326 -319 -464 -498 -82 -107 -264 -390 -258
-401 1 -2 -5 -12 -14 -22 -17 -20 -135 -259 -128 -259 2 -1 -3 -12 -12 -25 -8
-14 -30 -63 -49 -110 -18 -47 -37 -90 -42 -96 -4 -6 -6 -13 -3 -16 3 -3 -2
-22 -12 -44 -9 -21 -17 -41 -18 -44 0 -3 -15 -50 -32 -105 -32 -101 -52 -173
-59 -210 -2 -11 -11 -51 -19 -90 -9 -38 -18 -81 -20 -95 -2 -14 -6 -34 -8 -45
-11 -50 -27 -167 -44 -320 -10 -95 -10 -561 0 -660 10 -92 13 -110 40 -256 3
-15 17 -71 32 -125 24 -87 34 -118 61 -189 4 -11 8 -22 9 -25 27 -80 158 -330
177 -338 5 -2 8 -8 8 -14 0 -6 10 -23 22 -38 13 -15 30 -37 38 -50 53 -81 187
-223 300 -318 30 -26 60 -51 66 -57 6 -5 22 -17 34 -25 12 -8 28 -21 36 -27 7
-7 17 -13 22 -13 5 0 16 -7 23 -16 7 -9 22 -20 34 -25 11 -5 34 -18 50 -29
213 -136 589 -275 883 -325 39 -6 83 -14 120 -20 68 -11 169 -22 292 -31 141
-10 492 -12 513 -2 11 6 17 5 17 -2 0 -6 4 -9 8 -6 5 3 49 8 99 11 91 6 129 9
238 21 62 7 91 11 135 18 73 12 104 17 138 22 20 3 45 7 54 10 9 3 27 7 40 10
98 19 233 55 348 91 63 20 117 37 120 38 3 1 19 7 35 14 17 7 35 14 40 15 30
8 257 110 320 145 29 16 56 27 59 24 3 -4 6 -1 6 5 0 7 5 12 10 12 6 0 36 16
66 35 30 19 57 35 60 35 3 0 58 35 122 77 121 81 132 88 161 113 10 8 33 26
52 39 133 95 410 359 545 521 83 100 234 305 234 319 0 5 4 11 9 13 26 10 281
495 296 564 2 5 12 29 23 52 11 23 26 64 33 92 7 27 16 50 21 50 4 0 7 3 6 8
-1 4 7 34 17 67 10 33 20 65 22 70 1 6 14 48 28 95 15 47 27 93 28 103 1 9 5
17 10 17 4 0 6 3 3 8 -2 4 4 43 15 87 17 72 26 120 35 180 1 11 3 20 4 20 3 0
15 81 24 165 4 31 9 71 11 90 18 133 25 499 12 630 -17 171 -37 282 -73 415
-33 119 -29 106 -66 205 -22 57 -116 258 -130 275 -5 6 -31 46 -59 90 -29 44
-54 82 -58 85 -3 3 -26 32 -51 64 -102 135 -301 312 -480 429 -149 96 -466
247 -520 247 -9 0 -20 4 -25 9 -18 16 -281 82 -420 105 -97 16 -173 27 -223
32 -32 3 -77 7 -102 10 -47 5 -577 14 -582 9z m262 -1050 c29 -5 93 -20 171
-39 106 -27 273 -114 353 -185 110 -99 245 -267 246 -308 0 -6 4 -13 8 -15 12
-5 67 -134 90 -213 22 -75 30 -109 38 -165 3 -19 7 -41 10 -49 17 -52 24 -401
11 -586 -8 -110 -28 -280 -42 -345 -3 -14 -8 -38 -11 -55 -30 -171 -147 -521
-217 -650 -6 -11 -12 -22 -12 -25 -3 -28 -189 -328 -254 -410 -67 -83 -76 -94
-135 -158 -82 -90 -249 -240 -279 -251 -6 -2 -20 -12 -31 -22 -10 -10 -22 -16
-26 -14 -5 3 -10 -1 -13 -8 -3 -7 -39 -31 -81 -52 -42 -22 -76 -43 -76 -47 0
-5 -6 -8 -13 -8 -7 0 -37 -11 -65 -25 -58 -28 -247 -92 -295 -100 -18 -3 -39
-8 -48 -11 -101 -30 -410 -36 -569 -9 -125 20 -357 101 -368 127 -2 4 -8 8
-14 8 -30 0 -215 157 -273 232 -75 95 -171 287 -190 378 -2 8 -8 33 -13 55 -6
22 -14 54 -17 70 -3 17 -8 44 -11 60 -6 32 -11 68 -18 150 -6 56 -7 363 -2
440 4 67 16 194 22 226 2 14 6 41 8 60 6 46 15 93 37 199 7 30 12 61 12 68 0
6 4 12 9 12 5 0 7 4 4 8 -8 13 74 272 108 347 8 17 18 42 21 58 4 15 11 27 16
27 5 0 9 6 9 14 0 7 13 40 30 72 16 32 30 65 30 72 0 6 4 12 9 12 5 0 13 10
17 23 6 21 102 186 113 197 4 3 21 28 40 55 19 28 42 57 50 67 9 9 27 31 41
49 14 18 40 48 58 67 17 19 32 39 32 43 0 5 7 9 15 9 8 0 15 4 15 9 0 8 45 54
124 126 56 51 183 145 195 145 6 0 11 5 11 10 0 6 7 10 15 10 8 0 15 5 15 10
0 6 6 10 14 10 8 0 16 4 18 8 6 16 318 159 318 146 0 -2 12 2 28 9 35 18 159
46 270 62 86 12 373 12 442 0z"/>
<path d="M3725 8033 c-11 -3 -47 -14 -80 -25 -33 -11 -64 -21 -70 -23 -5 -1
-23 -7 -38 -13 -16 -7 -34 -12 -41 -12 -6 0 -17 -5 -24 -12 -7 -7 -12 -9 -12
-5 0 4 -13 1 -29 -7 -16 -9 -31 -12 -35 -9 -3 4 -6 2 -6 -4 0 -5 -6 -10 -12
-10 -42 -3 -481 -211 -587 -278 -22 -14 -43 -25 -46 -25 -4 0 -26 -13 -50 -30
-24 -16 -46 -30 -50 -30 -3 0 -11 -5 -18 -10 -7 -6 -49 -35 -95 -65 -46 -30
-88 -59 -95 -65 -7 -5 -48 -36 -92 -68 -274 -200 -612 -532 -805 -792 -14 -19
-46 -62 -73 -97 -26 -34 -47 -67 -47 -72 0 -5 -3 -11 -7 -13 -14 -6 -153 -223
-153 -238 0 -6 -3 -10 -7 -10 -5 0 -13 -10 -19 -23 -6 -12 -51 -101 -100 -197
-49 -97 -95 -191 -102 -210 -8 -19 -20 -48 -27 -65 -12 -25 -21 -49 -30 -75
-1 -3 -5 -14 -9 -25 -38 -99 -50 -134 -81 -233 -19 -62 -37 -123 -40 -135 -2
-12 -9 -40 -15 -62 -6 -22 -13 -49 -16 -60 -3 -11 -7 -33 -9 -50 -3 -16 -9
-50 -16 -75 -15 -62 -18 -76 -23 -124 -3 -23 -8 -49 -11 -57 -3 -9 -8 -40 -11
-70 -7 -85 -12 -130 -19 -184 -9 -64 -9 -572 0 -645 3 -30 8 -73 10 -95 2 -22
4 -40 5 -40 1 0 3 -18 5 -40 6 -51 14 -106 31 -200 8 -41 17 -90 19 -105 2 -8
11 -44 20 -80 10 -36 19 -78 22 -94 3 -16 9 -41 15 -55 5 -14 12 -37 15 -51 5
-29 41 -146 53 -175 5 -11 23 -60 40 -110 17 -49 37 -103 44 -120 29 -66 38
-90 34 -90 -1 -1 5 -13 15 -28 9 -15 14 -27 11 -27 -4 0 0 -8 8 -17 13 -15 27
-42 33 -63 3 -12 80 -165 85 -170 12 -11 40 -60 35 -60 -3 0 10 -25 30 -55 19
-31 35 -60 35 -65 0 -6 5 -10 10 -10 6 0 10 -7 10 -15 0 -8 5 -15 10 -15 6 0
10 -5 10 -11 0 -12 80 -133 92 -137 4 -2 8 -8 8 -14 0 -6 14 -27 30 -48 17
-21 30 -43 30 -49 0 -6 4 -11 8 -11 5 0 29 -28 54 -63 26 -34 59 -76 75 -94
15 -18 44 -51 63 -74 70 -84 170 -189 277 -289 124 -117 152 -142 238 -210 44
-36 82 -67 85 -70 15 -16 222 -160 230 -160 6 0 10 -3 10 -8 0 -4 16 -16 35
-26 19 -11 35 -22 35 -26 0 -5 11 -11 25 -14 14 -4 25 -11 25 -16 0 -6 9 -10
19 -10 11 0 21 -4 23 -8 4 -11 123 -82 136 -82 6 0 12 -3 14 -8 7 -16 417
-212 444 -212 8 0 14 -5 14 -12 0 -6 3 -8 6 -5 4 3 16 1 28 -5 11 -7 26 -13
31 -14 6 -2 48 -17 95 -34 70 -27 135 -48 160 -55 3 -1 39 -12 80 -25 41 -13
82 -24 90 -25 8 -1 22 -5 30 -8 22 -10 256 -64 307 -72 12 -2 34 -6 50 -9 15
-3 46 -8 68 -11 23 -3 52 -8 65 -11 14 -3 47 -7 75 -10 27 -2 61 -7 75 -9 28
-6 176 -18 232 -19 21 -1 38 -3 38 -6 0 -6 391 -3 500 4 41 2 75 5 75 6 0 1
25 4 55 5 30 2 75 6 100 9 25 3 63 8 85 10 22 3 57 8 79 11 21 4 48 8 60 9 11
2 32 6 46 9 14 4 39 9 55 11 68 11 299 65 405 95 41 12 82 23 90 26 8 2 42 13
75 25 33 12 67 23 75 25 8 2 29 9 45 16 17 6 35 13 40 15 20 4 171 67 206 85
20 10 39 16 41 13 3 -2 11 2 18 11 7 8 18 15 26 15 10 0 95 39 154 71 8 4 47
25 85 45 246 130 530 325 755 519 119 102 328 309 410 404 30 35 60 69 65 75
20 22 121 152 145 186 14 19 28 40 33 45 42 52 179 263 223 345 10 19 22 37
25 40 3 3 27 48 53 100 27 52 52 100 56 105 3 6 16 33 28 60 11 28 33 77 48
110 16 33 29 65 30 70 1 6 17 46 34 90 18 43 33 84 34 90 1 5 4 15 8 20 8 12
63 194 84 275 8 30 16 62 18 70 4 13 31 133 42 185 2 10 6 37 10 59 3 22 7 43
10 47 4 8 17 113 18 156 1 18 3 33 6 33 3 0 6 8 7 18 0 9 4 55 8 102 9 105 10
574 1 655 -3 33 -8 79 -11 103 -3 23 -7 63 -10 90 -3 26 -8 56 -9 67 -2 11 -9
47 -15 80 -6 33 -13 74 -16 90 -8 47 -22 110 -25 110 -1 0 -3 14 -5 30 -1 17
-3 30 -4 30 -2 0 -4 7 -6 15 -3 17 -10 45 -24 105 -17 69 -28 109 -40 135 -10
22 -11 18 -6 -25 27 -276 25 -603 -6 -820 -19 -140 -16 -120 -40 -245 -12 -61
-57 -247 -66 -270 -8 -19 -7 -18 -17 -60 -5 -19 -11 -39 -15 -45 -3 -5 -6 -12
-6 -15 -5 -40 -109 -290 -181 -435 -80 -163 -116 -229 -176 -318 -21 -32 -38
-63 -38 -68 0 -5 -4 -9 -10 -9 -5 0 -10 -5 -10 -11 0 -6 -6 -16 -12 -24 -7 -7
-35 -45 -62 -84 -27 -39 -53 -71 -58 -71 -4 0 -8 -6 -8 -14 0 -8 -3 -16 -7
-18 -5 -1 -24 -23 -43 -48 -35 -47 -50 -64 -120 -140 -285 -309 -549 -519
-920 -733 -77 -44 -293 -148 -401 -192 -98 -41 -353 -130 -399 -140 -8 -2 -42
-11 -75 -21 -33 -9 -67 -19 -75 -20 -15 -2 -38 -7 -95 -21 -39 -9 -33 -8 -88
-17 -55 -9 -80 -13 -119 -22 -15 -3 -49 -8 -75 -10 -27 -3 -66 -7 -88 -9 -137
-16 -215 -20 -430 -20 -212 1 -316 5 -420 19 -16 2 -55 7 -86 10 -31 4 -67 9
-80 12 -13 3 -33 6 -44 8 -37 6 -110 18 -130 23 -11 2 -33 7 -50 10 -38 7 -47
9 -65 15 -13 5 -225 64 -255 72 -16 4 -88 27 -105 33 -8 4 -17 7 -20 8 -3 1
-14 5 -25 9 -11 4 -45 17 -75 28 -30 12 -68 27 -85 34 -115 48 -160 69 -163
76 -2 4 -10 8 -18 8 -7 0 -29 9 -48 19 -19 11 -37 17 -40 14 -3 -4 -6 -2 -6 4
0 6 -20 19 -45 30 -25 10 -45 21 -45 26 0 4 -9 7 -20 7 -11 0 -20 5 -20 10 0
6 -4 10 -9 10 -20 0 -372 229 -409 267 -7 7 -16 13 -20 13 -4 0 -22 14 -41 30
-18 16 -49 42 -68 57 -162 128 -448 424 -558 579 -11 15 -29 39 -40 53 -11 14
-34 46 -50 71 -17 25 -32 47 -35 50 -22 20 -185 297 -197 333 -3 9 -9 17 -14
17 -5 0 -9 7 -9 15 0 8 -8 29 -18 47 -10 18 -37 78 -61 133 -23 55 -49 114
-56 130 -49 111 -150 457 -158 538 -1 9 -4 17 -7 17 -3 0 -6 10 -6 23 -2 27
-12 91 -21 132 -6 32 -8 42 -17 120 -17 137 -18 156 -26 410 -2 53 8 277 14
312 3 15 8 59 11 98 4 38 9 73 11 77 3 5 7 25 9 46 4 39 11 80 20 122 3 14 7
36 10 50 11 58 14 71 19 78 3 5 8 22 10 38 3 16 15 61 26 99 12 39 23 79 25
90 3 11 9 29 14 40 5 11 16 40 25 65 8 25 21 59 27 75 7 17 13 35 14 41 3 12
11 31 70 159 20 44 36 80 35 80 -2 0 7 16 18 35 11 19 37 69 59 110 21 41 40
77 44 80 3 3 16 23 29 45 80 133 223 337 273 387 9 10 17 20 17 23 0 5 10 17
115 134 98 108 263 267 365 350 14 11 32 27 40 34 32 29 178 136 250 183 41
27 77 52 80 55 3 3 21 14 40 25 35 19 97 58 115 71 6 5 42 24 80 43 39 18 73
38 76 43 3 5 9 9 12 8 11 0 77 29 77 34 0 3 -1 4 -2 4 -2 -1 -12 -3 -23 -6z"/>
</g>
</svg>
